<svg xmlns="http://www.w3.org/2000/svg" width="1280" height="800" viewBox="0 0 1280 800" role="img" aria-label="Maze Solver interface with controls, maze generation colors, A star search colors, and final path">
    <rect width="1280" height="800" fill="#05080d" />
    <g transform="translate(12 12)">
        <rect width="720" height="48" fill="#0c121c" opacity="0.88" stroke="#334155" />
        <rect x="8" y="8" width="96" height="32" fill="#1c6dd0" />
        <text x="56" y="29" text-anchor="middle" font-family="Arial, sans-serif" font-size="14" fill="#f6f8fb">Regenerate</text>
        <rect x="112" y="8" width="64" height="32" fill="#1c6dd0" />
        <text x="144" y="29" text-anchor="middle" font-family="Arial, sans-serif" font-size="14" fill="#f6f8fb">Pause</text>
        <text x="196" y="29" font-family="Arial, sans-serif" font-size="14" fill="#f6f8fb">Speed</text>
        <rect x="248" y="20" width="96" height="4" fill="#94a3b8" />
        <circle cx="260" cy="22" r="7" fill="#f6f8fb" />
        <text x="354" y="29" font-family="Arial, sans-serif" font-size="14" fill="#f6f8fb">1x</text>
        <text x="386" y="29" font-family="Arial, sans-serif" font-size="14" fill="#f6f8fb">Grid</text>
        <rect x="426" y="20" width="96" height="4" fill="#94a3b8" />
        <circle cx="446" cy="22" r="7" fill="#f6f8fb" />
        <text x="532" y="29" font-family="Arial, sans-serif" font-size="14" fill="#f6f8fb">20x20</text>
        <text x="608" y="29" font-family="Arial, sans-serif" font-size="14" font-weight="700" fill="#f6f8fb">Solving</text>
    </g>
    <g transform="translate(0 0)">
        <rect x="0" y="0" width="1280" height="800" fill="none" />
        <g stroke="#ffffff" stroke-opacity="0.8" stroke-width="2">
            <path d="M0 80H1280M0 160H1280M0 240H1280M0 320H1280M0 400H1280M0 480H1280M0 560H1280M0 640H1280M0 720H1280" />
            <path d="M80 0V800M160 0V800M240 0V800M320 0V800M400 0V800M480 0V800M560 0V800M640 0V800M720 0V800M800 0V800M880 0V800M960 0V800M1040 0V800M1120 0V800M1200 0V800" />
        </g>
        <g>
            <rect x="0" y="0" width="80" height="80" fill="#27c7ff" />
            <rect x="80" y="0" width="80" height="80" fill="#164b67" />
            <rect x="160" y="0" width="80" height="80" fill="#164b67" />
            <rect x="240" y="0" width="80" height="80" fill="#164b67" />
            <rect x="320" y="80" width="80" height="80" fill="#6f52ed" />
            <rect x="400" y="80" width="80" height="80" fill="#6f52ed" />
            <rect x="480" y="160" width="80" height="80" fill="#6f52ed" />
            <rect x="560" y="160" width="80" height="80" fill="#f0b429" />
            <rect x="640" y="240" width="80" height="80" fill="#f0b429" />
            <rect x="720" y="320" width="80" height="80" fill="#164b67" />
            <rect x="800" y="400" width="80" height="80" fill="#164b67" />
            <rect x="880" y="480" width="80" height="80" fill="#164b67" />
            <rect x="960" y="560" width="80" height="80" fill="#164b67" />
            <rect x="1040" y="640" width="80" height="80" fill="#164b67" />
            <rect x="1200" y="720" width="80" height="80" fill="#ff5d73" />
        </g>
        <path d="M40 40L120 40L200 40L280 40L360 120L440 120L520 200L600 200L680 280L760 360L840 440L920 520L1000 600L1080 680L1240 760" fill="none" stroke="#fff7d6" stroke-width="16" stroke-linecap="round" stroke-linejoin="round" />
        <circle cx="40" cy="40" r="18" fill="#27c7ff" />
        <circle cx="1240" cy="760" r="18" fill="#ff5d73" />
    </g>
</svg>
